<svg xmlns="http://www.w3.org/2000/svg" width="120" height="44" viewBox="0 0 120 44">
    <g fill="none" fill-rule="evenodd">
        <path fill="#028FFD" d="M3 7H5V19H3z"/>
        <rect width="2" height="12" x="11.294" y="2.366" fill="#028FFD" rx="1" transform="rotate(-60 12.294 8.366)"/>
        <path fill="#028FFD" d="M16.513 14.962C17.2 16.18 18.503 17 20 17v10c-1.496 0-2.8.821-3.486 2.038L7.487 23.96C7.814 23.381 8 22.712 8 22c0-.713-.186-1.382-.513-1.961z"/>
        <path fill="#028FFD" d="M10.861 30.116H12.861V41.116H10.861z" transform="rotate(-120 11.861 35.616)"/>
        <rect width="2" height="12" x="3" y="25" fill="#028FFD" rx="1"/>
        <path fill="#2F09B8" fill-rule="nonzero" d="M4 36c2.21 0 4 1.79 4 4s-1.79 4-4 4-4-1.79-4-4 1.79-4 4-4zm0 1c-1.657 0-3 1.343-3 3s1.343 3 3 3 3-1.343 3-3-1.343-3-3-3zM4 18c2.21 0 4 1.79 4 4s-1.79 4-4 4-4-1.79-4-4 1.79-4 4-4zm0 1c-1.657 0-3 1.343-3 3s1.343 3 3 3 3-1.343 3-3-1.343-3-3-3zM20 9c2.21 0 4 1.79 4 4s-1.79 4-4 4-4-1.79-4-4 1.79-4 4-4zm0 1c-1.657 0-3 1.343-3 3s1.343 3 3 3 3-1.343 3-3-1.343-3-3-3zM20 27c2.21 0 4 1.79 4 4s-1.79 4-4 4-4-1.79-4-4 1.79-4 4-4zm0 1c-1.657 0-3 1.343-3 3s1.343 3 3 3 3-1.343 3-3-1.343-3-3-3zM4 0c2.21 0 4 1.79 4 4S6.21 8 4 8 0 6.21 0 4s1.79-4 4-4zm0 1C2.343 1 1 2.343 1 4s1.343 3 3 3 3-1.343 3-3-1.343-3-3-3z"/>
        <path fill="#041428" fill-rule="nonzero" d="M39.918 33.57c2.622 0 4.978-1.14 6.194-3.534h.114V33h3.04V6.4H45.96v11.248c-1.102-1.824-3.268-3.04-6.004-3.04-4.864 0-8.474 3.876-8.474 9.5 0 5.624 3.534 9.462 8.436 9.462zm.57-2.964c-3.344 0-5.662-2.736-5.662-6.498 0-3.686 2.166-6.574 5.662-6.574 3.458 0 5.548 2.66 5.548 6.574 0 3.838-2.09 6.498-5.548 6.498zM58.196 33V22.74c0-3.04 2.052-5.206 4.788-5.206 2.432 0 3.838 1.71 3.838 4.788V33h3.306V21.6c0-4.37-2.394-6.992-6.308-6.992-2.47 0-4.674 1.292-5.624 3.116V6.4H54.89V33h3.306zm24.358.57c2.622 0 4.978-1.216 6.194-3.534h.114V33h3.04V15.178h-3.306v2.47c-1.102-1.824-3.268-3.04-6.004-3.04-4.864 0-8.474 3.876-8.474 9.5 0 5.586 3.534 9.462 8.436 9.462zm.57-2.964c-3.344 0-5.662-2.698-5.662-6.498 0-3.686 2.166-6.574 5.662-6.574 3.458 0 5.548 2.736 5.548 6.574 0 3.8-2.09 6.498-5.548 6.498zM100.832 33V22.74c0-3.04 2.052-5.206 4.788-5.206 2.432 0 3.838 1.71 3.838 4.788V33h3.306V21.6c0-4.37-2.394-6.992-6.308-6.992-2.584 0-4.674 1.254-5.7 3.192h-.152v-2.622h-3.078V33h3.306z"/>
    </g>
</svg>
