<svg width="139" height="48" viewBox="0 0 139 48" fill="none" xmlns="http://www.w3.org/2000/svg">
<path d="M37.1644 18.4168C33.5306 14.8477 30.2795 12.3958 27.4015 10.7676C27.4026 10.7676 27.4015 10.7676 27.4005 10.7676C21.4739 7.26744 15.0809 6.97382 11.5107 10.5429L8.99634 13.0573C9.57299 12.4806 10.3659 12.1626 11.3199 12.0821C15.0194 11.7694 21.1569 15.0236 26.686 20.5527C32.2151 26.0818 35.4683 32.2204 35.1567 35.9188C36.1107 35.8383 36.9025 35.5213 37.4802 34.9436C39.6967 32.7271 38.0866 27.3464 33.908 21.7633L33.8921 21.7421L37.1951 18.439C37.1951 18.439 37.1856 18.4316 37.1665 18.4168H37.1644Z" fill="url(#paint0_linear_2219_1638)"/>
<path d="M9.31005 29.5831C12.9438 33.1522 16.1949 35.604 19.0729 37.2322C19.0718 37.2322 19.0729 37.2322 19.0739 37.2322C25.0005 40.7324 31.3935 41.0261 34.9637 37.457L37.4781 34.9426C36.9014 35.5192 36.1085 35.8372 35.1545 35.9178C31.455 36.2305 25.3175 32.9762 19.7884 27.4472C14.2593 21.9181 11.0061 15.7795 11.3177 12.0811C10.3637 12.1616 9.57188 12.4786 8.99416 13.0563C6.77766 15.2728 8.38783 20.6535 12.5664 26.2366L12.5823 26.2578L9.27931 29.5608C9.27931 29.5608 9.28885 29.5683 9.30793 29.5831H9.31005Z" fill="url(#paint1_linear_2219_1638)"/>
<path d="M104.514 36.0259H101.017V33.1088C99.5701 35.3719 97.2624 36.6121 94.2699 36.6121C91.5764 36.6121 89.3207 35.5733 87.7413 33.7172C86.165 31.8654 85.2756 29.2174 85.2756 26.0161C85.2756 22.8149 86.165 20.1669 87.7413 18.3151C89.3207 16.46 91.5764 15.4212 94.2699 15.4212C96.9635 15.4212 99.2839 16.5321 100.744 18.5716V10.0002H104.514V36.027V36.0259ZM100.783 26.0172C100.783 23.8081 100.168 22.0029 99.1259 20.7531C98.0871 19.5076 96.6115 18.8006 94.8551 18.8006C93.0986 18.8006 91.6856 19.5055 90.7051 20.7478C89.7203 21.9955 89.1627 23.8018 89.1627 26.0161C89.1627 28.2305 89.7214 30.0358 90.7051 31.2845C91.6856 32.5268 93.0997 33.2317 94.8551 33.2317C96.6105 33.2317 98.0871 32.5257 99.1259 31.2792C100.168 30.0305 100.783 28.2252 100.783 26.0161V26.0172Z" fill="#000009"/>
<path fill-rule="evenodd" clip-rule="evenodd" d="M67.5268 18.3607C65.8552 20.2316 64.9351 22.8923 64.9351 26.0554C64.9351 29.2185 65.8647 31.8802 67.5523 33.7278C69.2409 35.5776 71.6726 36.6122 74.6322 36.6122C79.4531 36.6122 82.3852 33.8519 83.3074 30.3262L83.3752 30.0686H79.6005L79.5549 30.2107C79.1118 31.577 77.6246 33.3102 74.6332 33.3102C72.846 33.3102 71.4394 32.7134 70.4535 31.6385C69.5006 30.5997 68.9229 29.0945 68.7967 27.1981H83.5258L83.547 27.0168C83.9614 23.5601 83.2639 20.6599 81.6739 18.6193C80.0817 16.5756 77.6161 15.4202 74.5537 15.4202C71.4913 15.4202 69.1995 16.4855 67.5258 18.3596L67.5268 18.3607ZM74.3979 18.684C72.8672 18.684 71.5835 19.2214 70.6337 20.185C69.7232 21.1093 69.1084 22.4375 68.8889 24.0922H79.7828C79.7955 22.6315 79.3503 21.3075 78.4875 20.3387C77.5886 19.3285 76.2211 18.684 74.3979 18.684Z" fill="#000009"/>
<path d="M50.0151 29.4665L49.9918 29.2874H46.4746L46.481 29.4994C46.5414 31.6258 47.4064 33.4119 48.9498 34.6628C50.4889 35.9104 52.6874 36.6132 55.3968 36.6132C57.8688 36.6132 59.8988 36.0207 61.316 34.9458C62.7396 33.8667 63.5315 32.3116 63.5315 30.4312C63.5315 28.8178 62.9845 27.5119 61.934 26.5218C60.8888 25.5381 59.3613 24.8809 57.4257 24.5258L54.3771 23.9788L54.128 23.9343C52.91 23.7053 52.0991 23.3947 51.5882 22.9951C51.0582 22.5806 50.8366 22.058 50.8366 21.3701C50.8366 20.5878 51.1345 19.9168 51.745 19.4376C52.3609 18.9532 53.316 18.6469 54.6548 18.6469C56.106 18.6469 57.1978 19.0094 57.9526 19.621C58.7052 20.2316 59.1419 21.1061 59.2543 22.1736L59.2733 22.357H62.9209L62.906 22.1375C62.7661 20.0546 61.9117 18.3691 60.4871 17.2074C59.0645 16.0477 57.0918 15.4233 54.7322 15.4233C52.3726 15.4233 50.3988 16.0678 49.0833 17.1597C47.7647 18.2547 47.0661 19.7875 47.0661 21.527C47.0661 23.0852 47.6163 24.335 48.7091 25.2805C49.7946 26.2186 51.3984 26.843 53.4867 27.1981L56.4547 27.7058C57.6345 27.9189 58.4508 28.2231 58.9712 28.6493C59.479 29.0637 59.7207 29.6075 59.7207 30.3548C59.7207 31.3428 59.3136 32.0795 58.5801 32.5766C57.8359 33.0812 56.7399 33.3515 55.3565 33.3515C53.6298 33.3515 52.3705 32.9487 51.5087 32.2724C50.65 31.5982 50.1646 30.6357 50.013 29.4687L50.0151 29.4665Z" fill="#000009"/>
<path d="M130.284 36.0005H126.52V23.5685C126.52 20.0461 127.768 17.7193 129.979 16.4876L130.285 16.3169V36.0005H130.284Z" fill="#000009"/>
<path fill-rule="evenodd" clip-rule="evenodd" d="M118.602 19.5574C119.378 20.1245 119.87 21.0171 119.87 22.3453C119.87 22.9718 119.754 23.3311 119.569 23.5431C119.386 23.7519 119.101 23.8601 118.653 23.8982L113.655 24.2502C111.344 24.4081 109.557 25.0325 108.345 26.0766C107.127 27.126 106.511 28.5825 106.511 30.3538C106.511 32.1431 107.156 33.713 108.364 34.8356C109.572 35.9571 111.324 36.6143 113.514 36.6143C116.607 36.6143 119.01 35.3115 120.339 32.9869V36.0016L123.72 36.0302V23.558C123.72 20.7659 122.936 18.7221 121.501 17.378C120.068 16.036 118.018 15.4233 115.546 15.4233C113.074 15.4233 111.177 15.9968 109.724 17.1575C108.269 18.3204 107.359 20.0525 107.061 22.3209L107.031 22.5531H110.727L110.75 22.3729C110.901 21.1867 111.386 20.2825 112.168 19.6719C112.951 19.0592 114.054 18.7243 115.468 18.7243C116.714 18.7243 117.817 18.984 118.604 19.5585L118.602 19.5574ZM119.987 27.1885V26.7433L114.114 27.1196C112.708 27.2161 111.774 27.5415 111.193 28.0503C110.621 28.5517 110.36 29.2588 110.36 30.1948C110.36 31.3004 110.714 32.0763 111.321 32.5798C111.934 33.0897 112.837 33.3473 113.982 33.3473C115.712 33.3473 117.211 32.759 118.276 31.7032C119.341 30.6485 119.987 29.1114 119.987 27.1864V27.1885Z" fill="#000009"/>
<path d="M130.504 14.7378C131.344 13.897 131.085 12.2742 129.924 11.113C128.762 9.95182 127.139 9.69207 126.299 10.5328C125.458 11.3736 125.718 12.9965 126.879 14.1577C128.04 15.3188 129.663 15.5786 130.504 14.7378Z" fill="#000009"/>
<defs>
<linearGradient id="paint0_linear_2219_1638" x1="41.6826" y1="34.3365" x2="13.5011" y2="6.15494" gradientUnits="userSpaceOnUse">
<stop stop-color="#4532B3"/>
<stop offset="0.4" stop-color="#6347FF"/>
<stop offset="0.54" stop-color="#7861FF"/>
<stop offset="0.68" stop-color="#8570FA"/>
<stop offset="0.9" stop-color="#EDEBFE"/>
<stop offset="1" stop-color="white"/>
</linearGradient>
<linearGradient id="paint1_linear_2219_1638" x1="4.79162" y1="13.6629" x2="32.9732" y2="41.8445" gradientUnits="userSpaceOnUse">
<stop stop-color="#4532B3"/>
<stop offset="0.4" stop-color="#6347FF"/>
<stop offset="0.54" stop-color="#7861FF"/>
<stop offset="0.68" stop-color="#8570FA"/>
<stop offset="0.9" stop-color="#EDEBFE"/>
<stop offset="1" stop-color="white"/>
</linearGradient>
</defs>
</svg>
